<mxfile host="app.diagrams.net" agent="Mozilla/5.0 (Windows NT 10.0; Win64; x64) AppleWebKit/537.36 (KHTML, like Gecko) Chrome/130.0.0.0 Safari/537.36 OPR/115.0.0.0" version="26.0.8">
  <diagram name="Page-1" id="fcgnvKk0WZcKXCmAVlTS">
    <mxGraphModel grid="1" page="1" gridSize="10" guides="1" tooltips="1" connect="1" arrows="1" fold="1" pageScale="1" pageWidth="827" pageHeight="1169" math="0" shadow="0">
      <root>
        <mxCell id="0" />
        <mxCell id="1" parent="0" />
        <mxCell id="qG2QxgR-0s4kBJQ4x0Em-2" style="edgeStyle=orthogonalEdgeStyle;rounded=0;orthogonalLoop=1;jettySize=auto;html=1;exitX=0.5;exitY=1;exitDx=0;exitDy=0;entryX=0.5;entryY=0;entryDx=0;entryDy=0;" edge="1" parent="1" source="BdzInrT_UNWdM95_iRSR-2" target="qG2QxgR-0s4kBJQ4x0Em-1">
          <mxGeometry relative="1" as="geometry" />
        </mxCell>
        <mxCell id="BdzInrT_UNWdM95_iRSR-2" value="Start" style="ellipse;whiteSpace=wrap;html=1;" vertex="1" parent="1">
          <mxGeometry x="339.5" y="-1230" width="120" height="80" as="geometry" />
        </mxCell>
        <mxCell id="BdzInrT_UNWdM95_iRSR-3" style="edgeStyle=orthogonalEdgeStyle;rounded=0;orthogonalLoop=1;jettySize=auto;html=1;exitX=1;exitY=0.5;exitDx=0;exitDy=0;entryX=0.5;entryY=0;entryDx=0;entryDy=0;" edge="1" parent="1" source="BdzInrT_UNWdM95_iRSR-5" target="qG2QxgR-0s4kBJQ4x0Em-4">
          <mxGeometry relative="1" as="geometry">
            <mxPoint x="585" y="-880" as="targetPoint" />
          </mxGeometry>
        </mxCell>
        <mxCell id="qG2QxgR-0s4kBJQ4x0Em-8" style="edgeStyle=orthogonalEdgeStyle;rounded=0;orthogonalLoop=1;jettySize=auto;html=1;entryX=0.5;entryY=0;entryDx=0;entryDy=0;" edge="1" parent="1" source="BdzInrT_UNWdM95_iRSR-5" target="BdzInrT_UNWdM95_iRSR-9">
          <mxGeometry relative="1" as="geometry" />
        </mxCell>
        <mxCell id="BdzInrT_UNWdM95_iRSR-5" value="Check if Database Exists:&lt;div&gt;databaseName in databases?&lt;/div&gt;" style="rhombus;whiteSpace=wrap;html=1;" vertex="1" parent="1">
          <mxGeometry x="290" y="-1000" width="217.5" height="150" as="geometry" />
        </mxCell>
        <mxCell id="BdzInrT_UNWdM95_iRSR-8" style="edgeStyle=orthogonalEdgeStyle;rounded=0;orthogonalLoop=1;jettySize=auto;html=1;exitX=0.5;exitY=1;exitDx=0;exitDy=0;entryX=0.5;entryY=0;entryDx=0;entryDy=0;" edge="1" parent="1" source="BdzInrT_UNWdM95_iRSR-9" target="BdzInrT_UNWdM95_iRSR-12">
          <mxGeometry relative="1" as="geometry" />
        </mxCell>
        <mxCell id="qG2QxgR-0s4kBJQ4x0Em-7" style="edgeStyle=orthogonalEdgeStyle;rounded=0;orthogonalLoop=1;jettySize=auto;html=1;entryX=0.5;entryY=0;entryDx=0;entryDy=0;" edge="1" parent="1" source="BdzInrT_UNWdM95_iRSR-9" target="qG2QxgR-0s4kBJQ4x0Em-6">
          <mxGeometry relative="1" as="geometry" />
        </mxCell>
        <mxCell id="BdzInrT_UNWdM95_iRSR-9" value=" Check if Table Exists:&lt;div&gt;tblName in databases[databaseName].tables?&lt;/div&gt;" style="rhombus;whiteSpace=wrap;html=1;" vertex="1" parent="1">
          <mxGeometry x="246.25" y="-792" width="305" height="230" as="geometry" />
        </mxCell>
        <mxCell id="BdzInrT_UNWdM95_iRSR-11" style="edgeStyle=orthogonalEdgeStyle;rounded=0;orthogonalLoop=1;jettySize=auto;html=1;exitX=0.5;exitY=1;exitDx=0;exitDy=0;entryX=0.5;entryY=0;entryDx=0;entryDy=0;" edge="1" parent="1" source="BdzInrT_UNWdM95_iRSR-12" target="BdzInrT_UNWdM95_iRSR-18">
          <mxGeometry relative="1" as="geometry">
            <mxPoint x="400.5" y="-390" as="targetPoint" />
          </mxGeometry>
        </mxCell>
        <mxCell id="BdzInrT_UNWdM95_iRSR-12" value="Find indices of condColumn and updColumn" style="rounded=0;whiteSpace=wrap;html=1;" vertex="1" parent="1">
          <mxGeometry x="289.5" y="-520" width="218" height="100" as="geometry" />
        </mxCell>
        <mxCell id="qG2QxgR-0s4kBJQ4x0Em-10" style="edgeStyle=orthogonalEdgeStyle;rounded=0;orthogonalLoop=1;jettySize=auto;html=1;exitX=1;exitY=0.5;exitDx=0;exitDy=0;entryX=0.5;entryY=0;entryDx=0;entryDy=0;" edge="1" parent="1" source="BdzInrT_UNWdM95_iRSR-18" target="qG2QxgR-0s4kBJQ4x0Em-9">
          <mxGeometry relative="1" as="geometry" />
        </mxCell>
        <UserObject label="&lt;div&gt;condColIndex == -1 OR updColIndex == -1?&lt;/div&gt;" link="&#xa;if (conditionIt == table.columns.end() || updateIt ==    | (Decision)&#xa;|     table.columns.end())&#xa;&#xa;" id="BdzInrT_UNWdM95_iRSR-18">
          <mxCell style="rhombus;whiteSpace=wrap;html=1;" vertex="1" parent="1">
            <mxGeometry x="268.75" y="-350" width="259.5" height="220" as="geometry" />
          </mxCell>
        </UserObject>
        <mxCell id="qG2QxgR-0s4kBJQ4x0Em-12" style="edgeStyle=orthogonalEdgeStyle;rounded=0;orthogonalLoop=1;jettySize=auto;html=1;entryX=0.5;entryY=0;entryDx=0;entryDy=0;" edge="1" parent="1" source="BdzInrT_UNWdM95_iRSR-20" target="qG2QxgR-0s4kBJQ4x0Em-11">
          <mxGeometry relative="1" as="geometry" />
        </mxCell>
        <mxCell id="BdzInrT_UNWdM95_iRSR-20" value="Start Iterating Through Rows:&lt;div&gt;For each row in myTable.rows:&lt;/div&gt;" style="rounded=0;whiteSpace=wrap;html=1;" vertex="1" parent="1">
          <mxGeometry x="315" y="-50" width="180" height="100" as="geometry" />
        </mxCell>
        <mxCell id="BdzInrT_UNWdM95_iRSR-21" style="edgeStyle=orthogonalEdgeStyle;rounded=0;orthogonalLoop=1;jettySize=auto;html=1;exitX=0.5;exitY=1;exitDx=0;exitDy=0;entryX=0.469;entryY=-0.01;entryDx=0;entryDy=0;entryPerimeter=0;" edge="1" parent="1" source="BdzInrT_UNWdM95_iRSR-18" target="BdzInrT_UNWdM95_iRSR-20">
          <mxGeometry relative="1" as="geometry" />
        </mxCell>
        <mxCell id="qG2QxgR-0s4kBJQ4x0Em-20" style="edgeStyle=orthogonalEdgeStyle;rounded=0;orthogonalLoop=1;jettySize=auto;html=1;entryX=0;entryY=0.5;entryDx=0;entryDy=0;" edge="1" parent="1" source="BdzInrT_UNWdM95_iRSR-31" target="qG2QxgR-0s4kBJQ4x0Em-11">
          <mxGeometry relative="1" as="geometry">
            <mxPoint x="129.70000000000005" y="134.95397489539755" as="targetPoint" />
            <Array as="points">
              <mxPoint x="406" y="670" />
              <mxPoint x="160" y="670" />
              <mxPoint x="160" y="185" />
            </Array>
          </mxGeometry>
        </mxCell>
        <mxCell id="qG2QxgR-0s4kBJQ4x0Em-29" style="edgeStyle=orthogonalEdgeStyle;rounded=0;orthogonalLoop=1;jettySize=auto;html=1;entryX=0.5;entryY=0;entryDx=0;entryDy=0;" edge="1" parent="1" source="BdzInrT_UNWdM95_iRSR-31" target="qG2QxgR-0s4kBJQ4x0Em-28">
          <mxGeometry relative="1" as="geometry">
            <Array as="points">
              <mxPoint x="560" y="575" />
            </Array>
          </mxGeometry>
        </mxCell>
        <mxCell id="BdzInrT_UNWdM95_iRSR-31" value="More rows to process?" style="rhombus;whiteSpace=wrap;html=1;" vertex="1" parent="1">
          <mxGeometry x="316.13" y="520" width="179.25" height="110" as="geometry" />
        </mxCell>
        <mxCell id="BdzInrT_UNWdM95_iRSR-54" value="True" style="text;html=1;align=center;verticalAlign=middle;resizable=0;points=[];autosize=1;strokeColor=none;fillColor=none;" vertex="1" parent="1">
          <mxGeometry x="405" y="-100" width="50" height="30" as="geometry" />
        </mxCell>
        <mxCell id="BdzInrT_UNWdM95_iRSR-55" value="False" style="text;html=1;align=center;verticalAlign=middle;resizable=0;points=[];autosize=1;strokeColor=none;fillColor=none;" vertex="1" parent="1">
          <mxGeometry x="545" y="-270" width="50" height="30" as="geometry" />
        </mxCell>
        <mxCell id="BdzInrT_UNWdM95_iRSR-56" value="True" style="text;html=1;align=center;verticalAlign=middle;resizable=0;points=[];autosize=1;strokeColor=none;fillColor=none;" vertex="1" parent="1">
          <mxGeometry x="395" y="-562" width="50" height="30" as="geometry" />
        </mxCell>
        <mxCell id="BdzInrT_UNWdM95_iRSR-57" value="False" style="text;html=1;align=center;verticalAlign=middle;resizable=0;points=[];autosize=1;strokeColor=none;fillColor=none;" vertex="1" parent="1">
          <mxGeometry x="570" y="-700" width="50" height="30" as="geometry" />
        </mxCell>
        <mxCell id="BdzInrT_UNWdM95_iRSR-58" value="True" style="text;html=1;align=center;verticalAlign=middle;resizable=0;points=[];autosize=1;strokeColor=none;fillColor=none;" vertex="1" parent="1">
          <mxGeometry x="425" y="-830" width="50" height="30" as="geometry" />
        </mxCell>
        <mxCell id="BdzInrT_UNWdM95_iRSR-59" value="False" style="text;html=1;align=center;verticalAlign=middle;resizable=0;points=[];autosize=1;strokeColor=none;fillColor=none;" vertex="1" parent="1">
          <mxGeometry x="540" y="-952" width="50" height="30" as="geometry" />
        </mxCell>
        <mxCell id="qG2QxgR-0s4kBJQ4x0Em-3" style="edgeStyle=orthogonalEdgeStyle;rounded=0;orthogonalLoop=1;jettySize=auto;html=1;entryX=0.5;entryY=0;entryDx=0;entryDy=0;" edge="1" parent="1" source="qG2QxgR-0s4kBJQ4x0Em-1" target="BdzInrT_UNWdM95_iRSR-5">
          <mxGeometry relative="1" as="geometry" />
        </mxCell>
        <mxCell id="qG2QxgR-0s4kBJQ4x0Em-1" value="Input &lt;code&gt;databaseName&lt;/code&gt;, &lt;code&gt;tblName&lt;/code&gt;, &lt;code&gt;condColumn&lt;/code&gt;, &lt;code&gt;condValue&lt;/code&gt;, &lt;code&gt;updColumn&lt;/code&gt;, &lt;code&gt;updValue&lt;/code&gt;" style="shape=parallelogram;perimeter=parallelogramPerimeter;whiteSpace=wrap;html=1;fixedSize=1;" vertex="1" parent="1">
          <mxGeometry x="164.5" y="-1110" width="470" height="60" as="geometry" />
        </mxCell>
        <mxCell id="qG2QxgR-0s4kBJQ4x0Em-40" style="edgeStyle=orthogonalEdgeStyle;rounded=0;orthogonalLoop=1;jettySize=auto;html=1;entryX=0.5;entryY=0;entryDx=0;entryDy=0;" edge="1" parent="1" source="qG2QxgR-0s4kBJQ4x0Em-4" target="qG2QxgR-0s4kBJQ4x0Em-37">
          <mxGeometry relative="1" as="geometry">
            <Array as="points">
              <mxPoint x="639" y="-780" />
              <mxPoint x="1020" y="-780" />
              <mxPoint x="1020" y="1000" />
              <mxPoint x="655" y="1000" />
            </Array>
          </mxGeometry>
        </mxCell>
        <mxCell id="qG2QxgR-0s4kBJQ4x0Em-4" value="Print &lt;code&gt;&quot;Database not found&quot;&lt;/code&gt;" style="shape=parallelogram;perimeter=parallelogramPerimeter;whiteSpace=wrap;html=1;fixedSize=1;" vertex="1" parent="1">
          <mxGeometry x="540" y="-870" width="197.5" height="60" as="geometry" />
        </mxCell>
        <mxCell id="qG2QxgR-0s4kBJQ4x0Em-42" style="edgeStyle=orthogonalEdgeStyle;rounded=0;orthogonalLoop=1;jettySize=auto;html=1;entryX=0.5;entryY=0;entryDx=0;entryDy=0;" edge="1" parent="1" source="qG2QxgR-0s4kBJQ4x0Em-6" target="qG2QxgR-0s4kBJQ4x0Em-37">
          <mxGeometry relative="1" as="geometry">
            <mxPoint x="655" y="1001" as="targetPoint" />
            <Array as="points">
              <mxPoint x="655" y="-540" />
              <mxPoint x="1020" y="-540" />
              <mxPoint x="1020" y="1000" />
              <mxPoint x="655" y="1000" />
            </Array>
          </mxGeometry>
        </mxCell>
        <mxCell id="qG2QxgR-0s4kBJQ4x0Em-6" value="Print &lt;code&gt;&quot;Table missing&quot;&lt;/code&gt;" style="shape=parallelogram;perimeter=parallelogramPerimeter;whiteSpace=wrap;html=1;fixedSize=1;" vertex="1" parent="1">
          <mxGeometry x="595" y="-644" width="120" height="60" as="geometry" />
        </mxCell>
        <mxCell id="qG2QxgR-0s4kBJQ4x0Em-43" style="edgeStyle=orthogonalEdgeStyle;rounded=0;orthogonalLoop=1;jettySize=auto;html=1;entryX=0.5;entryY=0;entryDx=0;entryDy=0;" edge="1" parent="1" source="qG2QxgR-0s4kBJQ4x0Em-9" target="qG2QxgR-0s4kBJQ4x0Em-37">
          <mxGeometry relative="1" as="geometry">
            <Array as="points">
              <mxPoint x="645" y="-80" />
              <mxPoint x="1020" y="-80" />
              <mxPoint x="1020" y="1000" />
              <mxPoint x="655" y="1000" />
            </Array>
          </mxGeometry>
        </mxCell>
        <mxCell id="qG2QxgR-0s4kBJQ4x0Em-9" value="Print &lt;code&gt;&quot;Columns not found&quot;&lt;/code&gt;" style="shape=parallelogram;perimeter=parallelogramPerimeter;whiteSpace=wrap;html=1;fixedSize=1;" vertex="1" parent="1">
          <mxGeometry x="575" y="-180" width="140" height="60" as="geometry" />
        </mxCell>
        <mxCell id="qG2QxgR-0s4kBJQ4x0Em-14" style="edgeStyle=orthogonalEdgeStyle;rounded=0;orthogonalLoop=1;jettySize=auto;html=1;exitX=0.5;exitY=1;exitDx=0;exitDy=0;entryX=0.5;entryY=0;entryDx=0;entryDy=0;" edge="1" parent="1" source="qG2QxgR-0s4kBJQ4x0Em-11" target="qG2QxgR-0s4kBJQ4x0Em-13">
          <mxGeometry relative="1" as="geometry" />
        </mxCell>
        <mxCell id="qG2QxgR-0s4kBJQ4x0Em-23" style="edgeStyle=orthogonalEdgeStyle;rounded=0;orthogonalLoop=1;jettySize=auto;html=1;" edge="1" parent="1" source="qG2QxgR-0s4kBJQ4x0Em-11">
          <mxGeometry relative="1" as="geometry">
            <mxPoint x="406.29999999999995" y="425.03018108651895" as="targetPoint" />
          </mxGeometry>
        </mxCell>
        <mxCell id="qG2QxgR-0s4kBJQ4x0Em-25" style="edgeStyle=orthogonalEdgeStyle;rounded=0;orthogonalLoop=1;jettySize=auto;html=1;exitX=1;exitY=0.5;exitDx=0;exitDy=0;" edge="1" parent="1" source="qG2QxgR-0s4kBJQ4x0Em-11">
          <mxGeometry relative="1" as="geometry">
            <mxPoint x="410" y="500" as="targetPoint" />
            <Array as="points">
              <mxPoint x="670" y="185" />
              <mxPoint x="670" y="500" />
            </Array>
          </mxGeometry>
        </mxCell>
        <mxCell id="qG2QxgR-0s4kBJQ4x0Em-11" value="&#xa;Does &lt;code&gt;row[condColIndex]&lt;/code&gt; match &lt;code&gt;condValue&lt;/code&gt;?&#xa;&#xa;" style="rhombus;whiteSpace=wrap;html=1;" vertex="1" parent="1">
          <mxGeometry x="281.5" y="110" width="248.5" height="150" as="geometry" />
        </mxCell>
        <mxCell id="qG2QxgR-0s4kBJQ4x0Em-17" style="edgeStyle=orthogonalEdgeStyle;rounded=0;orthogonalLoop=1;jettySize=auto;html=1;exitX=0.5;exitY=1;exitDx=0;exitDy=0;entryX=0.5;entryY=0;entryDx=0;entryDy=0;" edge="1" parent="1" source="qG2QxgR-0s4kBJQ4x0Em-13" target="qG2QxgR-0s4kBJQ4x0Em-16">
          <mxGeometry relative="1" as="geometry" />
        </mxCell>
        <mxCell id="qG2QxgR-0s4kBJQ4x0Em-13" value="Update &lt;code&gt;row[updColIndex] = updValue&lt;/code&gt;" style="rounded=0;whiteSpace=wrap;html=1;" vertex="1" parent="1">
          <mxGeometry x="325.5" y="300" width="160.5" height="70" as="geometry" />
        </mxCell>
        <mxCell id="qG2QxgR-0s4kBJQ4x0Em-18" style="edgeStyle=orthogonalEdgeStyle;rounded=0;orthogonalLoop=1;jettySize=auto;html=1;exitX=0.5;exitY=1;exitDx=0;exitDy=0;entryX=0.5;entryY=0;entryDx=0;entryDy=0;" edge="1" parent="1" source="qG2QxgR-0s4kBJQ4x0Em-16" target="BdzInrT_UNWdM95_iRSR-31">
          <mxGeometry relative="1" as="geometry" />
        </mxCell>
        <mxCell id="qG2QxgR-0s4kBJQ4x0Em-16" value="didUpdate = true" style="rounded=0;whiteSpace=wrap;html=1;" vertex="1" parent="1">
          <mxGeometry x="345.75" y="410" width="120" height="60" as="geometry" />
        </mxCell>
        <mxCell id="qG2QxgR-0s4kBJQ4x0Em-21" value="True" style="text;html=1;align=center;verticalAlign=middle;resizable=0;points=[];autosize=1;strokeColor=none;fillColor=none;" vertex="1" parent="1">
          <mxGeometry x="255" y="638" width="50" height="30" as="geometry" />
        </mxCell>
        <mxCell id="qG2QxgR-0s4kBJQ4x0Em-26" value="False" style="text;html=1;align=center;verticalAlign=middle;resizable=0;points=[];autosize=1;strokeColor=none;fillColor=none;" vertex="1" parent="1">
          <mxGeometry x="555" y="158" width="50" height="30" as="geometry" />
        </mxCell>
        <mxCell id="qG2QxgR-0s4kBJQ4x0Em-27" value="True" style="text;html=1;align=center;verticalAlign=middle;resizable=0;points=[];autosize=1;strokeColor=none;fillColor=none;" vertex="1" parent="1">
          <mxGeometry x="395" y="270" width="50" height="30" as="geometry" />
        </mxCell>
        <mxCell id="qG2QxgR-0s4kBJQ4x0Em-32" style="edgeStyle=orthogonalEdgeStyle;rounded=0;orthogonalLoop=1;jettySize=auto;html=1;exitX=0.5;exitY=1;exitDx=0;exitDy=0;entryX=0.5;entryY=0;entryDx=0;entryDy=0;" edge="1" parent="1" source="qG2QxgR-0s4kBJQ4x0Em-28" target="qG2QxgR-0s4kBJQ4x0Em-31">
          <mxGeometry relative="1" as="geometry" />
        </mxCell>
        <mxCell id="qG2QxgR-0s4kBJQ4x0Em-35" style="edgeStyle=orthogonalEdgeStyle;rounded=0;orthogonalLoop=1;jettySize=auto;html=1;exitX=1;exitY=0.5;exitDx=0;exitDy=0;entryX=0.5;entryY=0;entryDx=0;entryDy=0;" edge="1" parent="1" source="qG2QxgR-0s4kBJQ4x0Em-28" target="qG2QxgR-0s4kBJQ4x0Em-34">
          <mxGeometry relative="1" as="geometry" />
        </mxCell>
        <mxCell id="qG2QxgR-0s4kBJQ4x0Em-28" value="Check if Any Updates:&lt;div&gt;didUpdate == true?&lt;/div&gt;" style="rhombus;whiteSpace=wrap;html=1;" vertex="1" parent="1">
          <mxGeometry x="484.62" y="668" width="150.38" height="130" as="geometry" />
        </mxCell>
        <mxCell id="qG2QxgR-0s4kBJQ4x0Em-30" value="False" style="text;html=1;align=center;verticalAlign=middle;resizable=0;points=[];autosize=1;strokeColor=none;fillColor=none;" vertex="1" parent="1">
          <mxGeometry x="495" y="548" width="50" height="30" as="geometry" />
        </mxCell>
        <mxCell id="qG2QxgR-0s4kBJQ4x0Em-38" style="edgeStyle=orthogonalEdgeStyle;rounded=0;orthogonalLoop=1;jettySize=auto;html=1;" edge="1" parent="1" source="qG2QxgR-0s4kBJQ4x0Em-31" target="qG2QxgR-0s4kBJQ4x0Em-37">
          <mxGeometry relative="1" as="geometry" />
        </mxCell>
        <mxCell id="qG2QxgR-0s4kBJQ4x0Em-31" value="Print Success Message:&lt;div&gt;Print &lt;code&gt;&quot;Table updated&quot;&lt;/code&gt; and display updated table&lt;/div&gt;" style="rounded=0;whiteSpace=wrap;html=1;" vertex="1" parent="1">
          <mxGeometry x="479.9" y="850" width="159.81" height="70" as="geometry" />
        </mxCell>
        <mxCell id="qG2QxgR-0s4kBJQ4x0Em-33" value="True" style="text;html=1;align=center;verticalAlign=middle;resizable=0;points=[];autosize=1;strokeColor=none;fillColor=none;" vertex="1" parent="1">
          <mxGeometry x="555" y="810" width="50" height="30" as="geometry" />
        </mxCell>
        <mxCell id="qG2QxgR-0s4kBJQ4x0Em-39" style="edgeStyle=orthogonalEdgeStyle;rounded=0;orthogonalLoop=1;jettySize=auto;html=1;" edge="1" parent="1" source="qG2QxgR-0s4kBJQ4x0Em-34" target="qG2QxgR-0s4kBJQ4x0Em-37">
          <mxGeometry relative="1" as="geometry" />
        </mxCell>
        <mxCell id="qG2QxgR-0s4kBJQ4x0Em-34" value="Print No Updates:&lt;div&gt;Print &lt;code&gt;&quot;Nothing to update&quot;&lt;/code&gt;&lt;/div&gt;" style="rounded=0;whiteSpace=wrap;html=1;" vertex="1" parent="1">
          <mxGeometry x="680" y="850" width="150" height="70" as="geometry" />
        </mxCell>
        <mxCell id="qG2QxgR-0s4kBJQ4x0Em-36" value="False" style="text;html=1;align=center;verticalAlign=middle;resizable=0;points=[];autosize=1;strokeColor=none;fillColor=none;" vertex="1" parent="1">
          <mxGeometry x="655" y="708" width="50" height="30" as="geometry" />
        </mxCell>
        <mxCell id="qG2QxgR-0s4kBJQ4x0Em-37" value="End" style="ellipse;whiteSpace=wrap;html=1;" vertex="1" parent="1">
          <mxGeometry x="595" y="1030" width="120" height="80" as="geometry" />
        </mxCell>
      </root>
    </mxGraphModel>
  </diagram>
</mxfile>
